<svg xmlns="http://www.w3.org/2000/svg" viewBox="0 0 640 480" width="64" height="48" >
  <path fill="#bd3d44" d="M0 0h640v480H0"/>
  <path stroke="#fff" stroke-width="37" d="M0 55.3h640M0 129h640M0 203h640M0 277h640M0 351h640M0 425h640"/>
  <path fill="#192f5d" d="M0 0h364.8v258.5H0"/>
  <marker id="us-a" markerHeight="30" markerWidth="30">
    <path fill="#fff" d="m14 0 9 27L0 10h28L5 27z"/>
  </marker>
  <path fill="none" marker-mid="url(#us-a)" d="m0 0 16 11h61 61 61 61 60L47 37h61 61 60 61L16 63h61 61 61 61 60L47 89h61 61 60 61L16 115h61 61 61 61 60L47 141h61 61 60 61L16 166h61 61 61 61 60L47 192h61 61 60 61L16 218h61 61 61 61 60z"/>
</svg>




<svg viewBox="0 0 64 64" xmlns="http://www.w3.org/2000/svg">

    <rect height="34.78" rx="3.14" width="47.94" x="8.03" y="14.61"/>
    <polygon class="cls-2" points="32 36.96 10.68 21.41 10.53 21.3 8.03 19.48 8.03 21.33 9.75 22.58 9.9 22.69 31.22 38.24 32 36.96"/>
    <path  d="M56,18.72,38.41,31.55l-6.91,5h0L14,49.39h1.64l13.75-10a5,5,0,0,1,5.89,0l10.67,7.79a11.77,11.77,0,0,0,6.92,2.25A3.13,3.13,0,0,0,56,46.25V19.92h0Z"/>
    <path d="M56,17.75v28.5a2.89,2.89,0,0,1-.13.88,3.13,3.13,0,0,1-3,2.26h0a2.32,2.32,0,0,1-2.32-2.32V16.2l.15-.11,2-1.48h.14A3.15,3.15,0,0,1,56,17.75Z"/>
    <path  d="M52.83,14.61h0a.5.5,0,0,0-.26.08l-1.91,1.4-.15.11L32.56,29.31a.68.68,0,0,1-.79,0L13.49,16l-1.73-1.27a.5.5,0,0,0-.26-.08h-.33A3.15,3.15,0,0,0,8,17.75v28.5a2.89,2.89,0,0,0,.13.88,3.13,3.13,0,0,0,3,2.26h0a2.32,2.32,0,0,0,2.32-2.32V23.44L27,33.34l4.45,3.25a1.41,1.41,0,0,0,1.66,0l4.29-3.14,13.07-9.54.15-.11L56,19.92V17.75A3.15,3.15,0,0,0,52.83,14.61Z"/>
    <polygon  points="13.49 23.46 10.68 21.41 10.53 21.3 8.03 19.48 8.03 21.33 9.75 22.58 9.9 22.69 13.49 25.31 13.49 23.46"/>
  </svg>